<svg width="22" height="22" viewBox="0 0 22 22" fill="none" xmlns="http://www.w3.org/2000/svg">
<path d="M5.59215 5.34368H3.08785C1.84309 5.34368 0.833984 4.33457 0.833984 3.08981C0.833984 1.845 1.84309 0.835938 3.08785 0.835938H5.59215C4.34739 0.835938 3.33828 1.845 3.33828 3.08981C3.33828 4.33457 4.34739 5.34368 5.59215 5.34368ZM3.33828 10.6862C3.33828 9.44138 4.34739 8.43231 5.59215 8.43231H3.08785C1.84309 8.43231 0.833984 9.44138 0.833984 10.6862C0.833984 11.9309 1.84309 12.9401 3.08785 12.9401H5.59215C4.34739 12.9401 3.33828 11.9309 3.33828 10.6862ZM3.33828 18.2826C3.33828 17.0378 4.34739 16.0287 5.59215 16.0287H3.08785C1.84309 16.0287 0.833984 17.0378 0.833984 18.2826C0.833984 19.5273 1.84309 20.5364 3.08785 20.5364H5.59215C4.34739 20.5364 3.33828 19.5273 3.33828 18.2826Z" fill="#CEE1F2"/>
<path d="M6.56899 6.17727H3.08864C1.38555 6.17727 0 4.79173 0 3.08864C0 1.38555 1.38555 0 3.08864 0H6.59466C7.0557 0 7.42942 0.373725 7.42942 0.834767C7.42942 1.29581 7.0557 1.66953 6.59466 1.66953H3.08864C2.30613 1.66953 1.66953 2.30613 1.66953 3.08864C1.66953 3.87115 2.30613 4.50774 3.08864 4.50774H6.56899C7.03003 4.50774 7.40375 4.88146 7.40375 5.34251C7.40375 5.80355 7.03003 6.17727 6.56899 6.17727ZM21.37 3.08864C21.37 1.38555 19.9845 0 18.2814 0H9.93372C9.47268 0 9.09896 0.373725 9.09896 0.834767C9.09896 1.29581 9.47268 1.66953 9.93372 1.66953H18.2814C19.0639 1.66953 19.7005 2.30613 19.7005 3.08864C19.7005 3.87115 19.0639 4.50774 18.2814 4.50774H9.90805C9.44701 4.50774 9.07329 4.88146 9.07329 5.34251C9.07329 5.80355 9.44701 6.17727 9.90805 6.17727H18.2814C19.9845 6.17727 21.37 4.79173 21.37 3.08864ZM14.5667 12.9389C14.5667 12.4778 14.193 12.1041 13.7319 12.1041H3.08864C2.30613 12.1041 1.66953 11.4675 1.66953 10.685C1.66953 9.9025 2.30613 9.26591 3.08864 9.26591H13.7319C14.193 9.26591 14.5667 8.89218 14.5667 8.43114C14.5667 7.9701 14.193 7.59638 13.7319 7.59638H3.08864C1.38555 7.59638 0 8.98192 0 10.685C0 12.3881 1.38555 13.7736 3.08864 13.7736H13.7319C14.193 13.7736 14.5667 13.3999 14.5667 12.9389ZM21.3283 18.2814C21.3283 16.5783 19.9427 15.1928 18.2396 15.1928H11.9789C11.5179 15.1928 11.1441 15.5665 11.1441 16.0275C11.1441 16.4886 11.5179 16.8623 11.9789 16.8623H18.2396C19.0222 16.8623 19.6588 17.4989 19.6588 18.2814C19.6588 19.0639 19.0222 19.7005 18.2396 19.7005H11.9789C11.5179 19.7005 11.1441 20.0742 11.1441 20.5353C11.1441 20.9963 11.5179 21.37 11.9789 21.37H18.2396C19.9427 21.37 21.3283 19.9845 21.3283 18.2814ZM9.4746 20.5353C9.4746 20.0742 9.10087 19.7005 8.63983 19.7005H3.08864C2.30613 19.7005 1.66953 19.0639 1.66953 18.2814C1.66953 17.4989 2.30613 16.8623 3.08864 16.8623H8.63983C9.10087 16.8623 9.4746 16.4886 9.4746 16.0275C9.4746 15.5665 9.10087 15.1928 8.63983 15.1928H3.08864C1.38555 15.1928 0 16.5783 0 18.2814C0 19.9845 1.38555 21.37 3.08864 21.37H8.63983C9.10087 21.37 9.4746 20.9963 9.4746 20.5353Z" fill="#003DCA"/>
<path d="M18.2398 13.771H17.0711C16.6101 13.771 16.2363 13.3973 16.2363 12.9363C16.2363 12.4752 16.6101 12.1015 17.0711 12.1015H18.2398C19.0223 12.1015 19.6589 11.4649 19.6589 10.6824C19.6589 9.89988 19.0223 9.26328 18.2398 9.26328H17.0711C16.6101 9.26328 16.2363 8.88956 16.2363 8.42852C16.2363 7.96747 16.6101 7.59375 17.0711 7.59375H18.2398C19.9429 7.59375 21.3284 8.9793 21.3284 10.6824C21.3284 12.3855 19.9429 13.771 18.2398 13.771Z" fill="#F800C0"/>
</svg>
