<svg width="1680" height="308" viewBox="0 0 1680 308" fill="none" xmlns="http://www.w3.org/2000/svg">
<g clip-path="url(#clip0_5_41901)">
<rect width="1680" height="398" rx="20" fill="#191818"/>
<g opacity="0.4">
<g filter="url(#filter0_f_5_41901)">
<ellipse cx="318" cy="-35" rx="461" ry="387" fill="url(#paint0_linear_5_41901)"/>
</g>
<g filter="url(#filter1_f_5_41901)">
<circle cx="1460" cy="272" r="241" fill="url(#paint1_linear_5_41901)"/>
</g>
</g>
<path d="M604.826 145L601.307 133.445H583.609L580.09 145H569L586.133 96.2578H598.717L615.916 145H604.826ZM598.85 124.812L595.33 113.523C595.109 112.771 594.81 111.808 594.434 110.635C594.079 109.439 593.714 108.233 593.338 107.016C592.984 105.776 592.696 104.702 592.475 103.795C592.253 104.702 591.943 105.831 591.545 107.182C591.169 108.51 590.803 109.771 590.449 110.967C590.095 112.162 589.84 113.014 589.686 113.523L586.199 124.812H598.85ZM630.094 145L615.949 107.879H626.541L633.713 129.029C634.111 130.269 634.421 131.575 634.643 132.947C634.886 134.32 635.052 135.548 635.141 136.633H635.406C635.473 135.46 635.628 134.209 635.871 132.881C636.137 131.553 636.48 130.269 636.9 129.029L644.039 107.879H654.631L640.486 145H630.094ZM675.184 107.115C680.164 107.115 683.982 108.2 686.639 110.369C689.295 112.538 690.623 115.837 690.623 120.264V145H683.551L681.592 139.953H681.326C680.264 141.281 679.179 142.366 678.072 143.207C676.965 144.048 675.693 144.668 674.254 145.066C672.815 145.465 671.066 145.664 669.008 145.664C666.816 145.664 664.846 145.243 663.098 144.402C661.371 143.561 660.01 142.277 659.014 140.551C658.018 138.802 657.52 136.589 657.52 133.91C657.52 129.97 658.903 127.07 661.67 125.211C664.437 123.329 668.587 122.289 674.121 122.09L680.562 121.891V120.264C680.562 118.316 680.053 116.888 679.035 115.98C678.017 115.073 676.6 114.619 674.785 114.619C672.992 114.619 671.232 114.874 669.506 115.383C667.779 115.892 666.053 116.534 664.326 117.309L660.973 110.469C662.943 109.428 665.145 108.609 667.58 108.012C670.037 107.414 672.572 107.115 675.184 107.115ZM680.562 127.801L676.645 127.934C673.368 128.022 671.089 128.609 669.805 129.693C668.543 130.778 667.912 132.206 667.912 133.977C667.912 135.526 668.366 136.633 669.273 137.297C670.181 137.939 671.365 138.26 672.826 138.26C674.995 138.26 676.822 137.618 678.305 136.334C679.81 135.05 680.562 133.224 680.562 130.855V127.801ZM711.209 107.879V145H701.082V107.879H711.209ZM706.162 93.3359C707.667 93.3359 708.962 93.6901 710.047 94.3984C711.132 95.0846 711.674 96.3796 711.674 98.2832C711.674 100.165 711.132 101.471 710.047 102.201C708.962 102.91 707.667 103.264 706.162 103.264C704.635 103.264 703.329 102.91 702.244 102.201C701.182 101.471 700.65 100.165 700.65 98.2832C700.65 96.3796 701.182 95.0846 702.244 94.3984C703.329 93.6901 704.635 93.3359 706.162 93.3359ZM731.994 145H721.867V93.3359H731.994V145ZM757.859 107.115C762.84 107.115 766.658 108.2 769.314 110.369C771.971 112.538 773.299 115.837 773.299 120.264V145H766.227L764.268 139.953H764.002C762.939 141.281 761.855 142.366 760.748 143.207C759.641 144.048 758.368 144.668 756.93 145.066C755.491 145.465 753.742 145.664 751.684 145.664C749.492 145.664 747.522 145.243 745.773 144.402C744.047 143.561 742.686 142.277 741.689 140.551C740.693 138.802 740.195 136.589 740.195 133.91C740.195 129.97 741.579 127.07 744.346 125.211C747.113 123.329 751.263 122.289 756.797 122.09L763.238 121.891V120.264C763.238 118.316 762.729 116.888 761.711 115.98C760.693 115.073 759.276 114.619 757.461 114.619C755.668 114.619 753.908 114.874 752.182 115.383C750.455 115.892 748.729 116.534 747.002 117.309L743.648 110.469C745.618 109.428 747.821 108.609 750.256 108.012C752.713 107.414 755.247 107.115 757.859 107.115ZM763.238 127.801L759.32 127.934C756.044 128.022 753.764 128.609 752.48 129.693C751.219 130.778 750.588 132.206 750.588 133.977C750.588 135.526 751.042 136.633 751.949 137.297C752.857 137.939 754.041 138.26 755.502 138.26C757.671 138.26 759.497 137.618 760.98 136.334C762.486 135.05 763.238 133.224 763.238 130.855V127.801ZM793.885 93.3359V105.355C793.885 106.75 793.84 108.133 793.752 109.506C793.686 110.878 793.597 111.941 793.486 112.693H793.885C794.859 111.166 796.187 109.871 797.869 108.809C799.551 107.724 801.732 107.182 804.41 107.182C808.572 107.182 811.947 108.809 814.537 112.062C817.127 115.316 818.422 120.087 818.422 126.373C818.422 130.601 817.824 134.154 816.629 137.031C815.434 139.887 813.762 142.045 811.615 143.506C809.468 144.945 806.978 145.664 804.145 145.664C801.422 145.664 799.275 145.177 797.703 144.203C796.132 143.229 794.859 142.133 793.885 140.916H793.188L791.494 145H783.758V93.3359H793.885ZM801.156 115.283C799.385 115.283 797.98 115.648 796.939 116.379C795.899 117.109 795.135 118.205 794.648 119.666C794.184 121.127 793.929 122.975 793.885 125.211V126.307C793.885 129.915 794.416 132.682 795.479 134.607C796.541 136.511 798.478 137.463 801.289 137.463C803.37 137.463 805.019 136.5 806.236 134.574C807.476 132.648 808.096 129.87 808.096 126.24C808.096 122.61 807.476 119.876 806.236 118.039C804.997 116.202 803.303 115.283 801.156 115.283ZM836.916 145H826.789V93.3359H836.916V145ZM862.881 107.182C866.312 107.182 869.267 107.846 871.746 109.174C874.225 110.48 876.14 112.383 877.49 114.885C878.84 117.386 879.516 120.441 879.516 124.049V128.963H855.576C855.687 131.818 856.539 134.065 858.133 135.703C859.749 137.319 861.984 138.127 864.84 138.127C867.208 138.127 869.378 137.883 871.348 137.396C873.318 136.91 875.343 136.179 877.424 135.205V143.041C875.587 143.949 873.661 144.613 871.646 145.033C869.654 145.454 867.23 145.664 864.375 145.664C860.656 145.664 857.358 144.978 854.48 143.605C851.625 142.233 849.378 140.141 847.74 137.33C846.124 134.519 845.316 130.977 845.316 126.705C845.316 122.367 846.047 118.758 847.508 115.881C848.991 112.981 851.049 110.812 853.684 109.373C856.318 107.912 859.383 107.182 862.881 107.182ZM862.947 114.387C860.977 114.387 859.339 115.018 858.033 116.279C856.749 117.541 856.008 119.522 855.809 122.223H870.02C869.997 120.717 869.721 119.378 869.189 118.205C868.68 117.032 867.906 116.102 866.865 115.416C865.847 114.73 864.541 114.387 862.947 114.387ZM920.621 107.115C925.602 107.115 929.42 108.2 932.076 110.369C934.732 112.538 936.061 115.837 936.061 120.264V145H928.988L927.029 139.953H926.764C925.701 141.281 924.617 142.366 923.51 143.207C922.403 144.048 921.13 144.668 919.691 145.066C918.253 145.465 916.504 145.664 914.445 145.664C912.254 145.664 910.284 145.243 908.535 144.402C906.809 143.561 905.447 142.277 904.451 140.551C903.455 138.802 902.957 136.589 902.957 133.91C902.957 129.97 904.34 127.07 907.107 125.211C909.874 123.329 914.025 122.289 919.559 122.09L926 121.891V120.264C926 118.316 925.491 116.888 924.473 115.98C923.454 115.073 922.038 114.619 920.223 114.619C918.43 114.619 916.67 114.874 914.943 115.383C913.217 115.892 911.49 116.534 909.764 117.309L906.41 110.469C908.38 109.428 910.583 108.609 913.018 108.012C915.475 107.414 918.009 107.115 920.621 107.115ZM926 127.801L922.082 127.934C918.806 128.022 916.526 128.609 915.242 129.693C913.98 130.778 913.35 132.206 913.35 133.977C913.35 135.526 913.803 136.633 914.711 137.297C915.618 137.939 916.803 138.26 918.264 138.26C920.433 138.26 922.259 137.618 923.742 136.334C925.247 135.05 926 133.224 926 130.855V127.801ZM962.158 137.596C963.265 137.596 964.339 137.485 965.379 137.264C966.441 137.042 967.493 136.766 968.533 136.434V143.971C967.449 144.458 966.098 144.856 964.482 145.166C962.889 145.498 961.14 145.664 959.236 145.664C957.023 145.664 955.031 145.31 953.26 144.602C951.511 143.871 950.128 142.62 949.109 140.85C948.113 139.057 947.615 136.566 947.615 133.379V115.482H942.768V111.199L948.346 107.812L951.268 99.9766H957.742V107.879H968.135V115.482H957.742V133.379C957.742 134.796 958.141 135.858 958.938 136.566C959.757 137.253 960.83 137.596 962.158 137.596Z" fill="white"/>
<path d="M571.336 193V174.439H575.271V189.75H582.8V193H571.336ZM598.631 185.878C598.631 187.063 598.47 188.112 598.148 189.026C597.835 189.94 597.374 190.715 596.765 191.35C596.164 191.976 595.436 192.45 594.581 192.771C593.735 193.093 592.778 193.254 591.712 193.254C590.713 193.254 589.795 193.093 588.957 192.771C588.128 192.45 587.404 191.976 586.786 191.35C586.177 190.715 585.703 189.94 585.364 189.026C585.034 188.112 584.869 187.063 584.869 185.878C584.869 184.304 585.148 182.971 585.707 181.879C586.266 180.787 587.061 179.958 588.094 179.391C589.126 178.824 590.358 178.54 591.788 178.54C593.117 178.54 594.293 178.824 595.317 179.391C596.35 179.958 597.158 180.787 597.742 181.879C598.335 182.971 598.631 184.304 598.631 185.878ZM588.817 185.878C588.817 186.809 588.919 187.592 589.122 188.227C589.325 188.861 589.643 189.34 590.074 189.661C590.506 189.983 591.069 190.144 591.763 190.144C592.448 190.144 593.003 189.983 593.426 189.661C593.857 189.34 594.171 188.861 594.365 188.227C594.568 187.592 594.67 186.809 594.67 185.878C594.67 184.938 594.568 184.16 594.365 183.542C594.171 182.916 593.857 182.446 593.426 182.133C592.994 181.82 592.431 181.663 591.737 181.663C590.713 181.663 589.968 182.014 589.503 182.717C589.046 183.419 588.817 184.473 588.817 185.878ZM609.752 178.54C609.947 178.54 610.171 178.553 610.425 178.578C610.687 178.595 610.899 178.62 611.06 178.654L610.768 182.285C610.641 182.243 610.459 182.213 610.222 182.196C609.993 182.171 609.794 182.158 609.625 182.158C609.126 182.158 608.639 182.222 608.165 182.349C607.7 182.476 607.281 182.683 606.908 182.971C606.536 183.25 606.24 183.622 606.02 184.088C605.808 184.545 605.702 185.108 605.702 185.776V193H601.83V178.807H604.763L605.334 181.193H605.524C605.804 180.711 606.151 180.271 606.565 179.873C606.989 179.467 607.467 179.145 608 178.908C608.542 178.663 609.126 178.54 609.752 178.54ZM619.489 178.54C620.801 178.54 621.931 178.794 622.879 179.302C623.827 179.801 624.559 180.529 625.075 181.485C625.591 182.442 625.85 183.61 625.85 184.989V186.868H616.696C616.739 187.96 617.064 188.819 617.674 189.445C618.292 190.063 619.146 190.372 620.238 190.372C621.144 190.372 621.973 190.279 622.727 190.093C623.48 189.907 624.254 189.627 625.05 189.255V192.251C624.347 192.598 623.611 192.852 622.841 193.013C622.079 193.174 621.152 193.254 620.061 193.254C618.639 193.254 617.378 192.992 616.277 192.467C615.186 191.942 614.326 191.142 613.7 190.067C613.082 188.993 612.773 187.638 612.773 186.005C612.773 184.346 613.053 182.966 613.611 181.866C614.178 180.757 614.965 179.928 615.973 179.378C616.98 178.819 618.152 178.54 619.489 178.54ZM619.515 181.295C618.761 181.295 618.135 181.536 617.636 182.019C617.145 182.501 616.861 183.258 616.785 184.291H622.219C622.21 183.715 622.104 183.203 621.901 182.755C621.707 182.306 621.41 181.951 621.013 181.688C620.623 181.426 620.124 181.295 619.515 181.295ZM645.667 178.54C647.275 178.54 648.49 178.955 649.311 179.784C650.14 180.605 650.555 181.925 650.555 183.745V193H646.67V184.71C646.67 183.694 646.496 182.928 646.149 182.412C645.802 181.896 645.265 181.638 644.537 181.638C643.513 181.638 642.785 182.006 642.354 182.742C641.922 183.47 641.706 184.515 641.706 185.878V193H637.834V184.71C637.834 184.033 637.758 183.466 637.605 183.009C637.453 182.552 637.22 182.209 636.907 181.98C636.594 181.752 636.192 181.638 635.701 181.638C634.982 181.638 634.415 181.82 634 182.184C633.594 182.539 633.302 183.068 633.124 183.771C632.955 184.465 632.87 185.315 632.87 186.322V193H628.998V178.807H631.956L632.477 180.622H632.692C632.98 180.131 633.34 179.733 633.771 179.429C634.212 179.124 634.694 178.9 635.219 178.756C635.743 178.612 636.277 178.54 636.818 178.54C637.859 178.54 638.74 178.709 639.459 179.048C640.187 179.386 640.745 179.911 641.135 180.622H641.478C641.901 179.894 642.497 179.365 643.268 179.035C644.046 178.705 644.846 178.54 645.667 178.54ZM665.167 178.807V193H661.295V178.807H665.167ZM663.237 173.246C663.813 173.246 664.308 173.382 664.723 173.652C665.137 173.915 665.345 174.41 665.345 175.138C665.345 175.857 665.137 176.356 664.723 176.636C664.308 176.907 663.813 177.042 663.237 177.042C662.653 177.042 662.154 176.907 661.739 176.636C661.333 176.356 661.13 175.857 661.13 175.138C661.13 174.41 661.333 173.915 661.739 173.652C662.154 173.382 662.653 173.246 663.237 173.246ZM677.139 178.54C678.738 178.54 680.029 179.162 681.011 180.406C682.001 181.65 682.496 183.474 682.496 185.878C682.496 187.486 682.263 188.84 681.798 189.94C681.332 191.032 680.689 191.857 679.868 192.416C679.047 192.975 678.104 193.254 677.037 193.254C676.352 193.254 675.763 193.169 675.272 193C674.782 192.822 674.363 192.598 674.016 192.327C673.669 192.048 673.368 191.752 673.114 191.438H672.911C672.979 191.777 673.03 192.124 673.063 192.479C673.097 192.835 673.114 193.182 673.114 193.521V199.246H669.242V178.807H672.391L672.937 180.647H673.114C673.368 180.267 673.677 179.915 674.041 179.594C674.405 179.272 674.841 179.018 675.349 178.832C675.865 178.637 676.462 178.54 677.139 178.54ZM675.895 181.638C675.217 181.638 674.68 181.777 674.282 182.057C673.884 182.336 673.592 182.755 673.406 183.313C673.229 183.872 673.131 184.579 673.114 185.434V185.853C673.114 186.767 673.199 187.541 673.368 188.176C673.546 188.811 673.838 189.293 674.244 189.623C674.659 189.953 675.226 190.118 675.945 190.118C676.538 190.118 677.024 189.953 677.405 189.623C677.786 189.293 678.07 188.811 678.256 188.176C678.451 187.533 678.548 186.75 678.548 185.827C678.548 184.439 678.332 183.394 677.9 182.691C677.469 181.989 676.8 181.638 675.895 181.638ZM695.598 188.785C695.598 189.75 695.369 190.567 694.912 191.235C694.464 191.896 693.791 192.399 692.894 192.746C691.996 193.085 690.879 193.254 689.542 193.254C688.552 193.254 687.701 193.19 686.99 193.063C686.288 192.937 685.577 192.725 684.857 192.429V189.229C685.628 189.576 686.453 189.864 687.333 190.093C688.222 190.313 689 190.423 689.669 190.423C690.422 190.423 690.96 190.313 691.281 190.093C691.611 189.864 691.776 189.568 691.776 189.204C691.776 188.967 691.709 188.756 691.573 188.569C691.446 188.375 691.167 188.159 690.735 187.922C690.304 187.676 689.627 187.359 688.704 186.97C687.815 186.597 687.083 186.221 686.508 185.84C685.941 185.459 685.518 185.01 685.238 184.494C684.967 183.969 684.832 183.305 684.832 182.501C684.832 181.189 685.34 180.203 686.355 179.543C687.38 178.874 688.746 178.54 690.456 178.54C691.336 178.54 692.174 178.629 692.97 178.807C693.774 178.984 694.599 179.268 695.445 179.657L694.277 182.45C693.575 182.146 692.91 181.896 692.284 181.701C691.666 181.507 691.036 181.409 690.393 181.409C689.826 181.409 689.398 181.485 689.11 181.638C688.823 181.79 688.679 182.023 688.679 182.336C688.679 182.564 688.751 182.768 688.895 182.945C689.047 183.123 689.335 183.322 689.758 183.542C690.189 183.754 690.82 184.029 691.649 184.367C692.453 184.697 693.152 185.044 693.744 185.408C694.337 185.764 694.794 186.208 695.115 186.741C695.437 187.266 695.598 187.947 695.598 188.785ZM711.645 178.807V193H708.674L708.153 191.185H707.95C707.646 191.667 707.265 192.061 706.808 192.365C706.351 192.67 705.847 192.894 705.297 193.038C704.747 193.182 704.175 193.254 703.583 193.254C702.567 193.254 701.683 193.076 700.93 192.721C700.176 192.357 699.588 191.794 699.165 191.032C698.75 190.271 698.543 189.28 698.543 188.062V178.807H702.415V187.097C702.415 188.112 702.597 188.878 702.961 189.395C703.325 189.911 703.905 190.169 704.7 190.169C705.487 190.169 706.105 189.991 706.554 189.636C707.002 189.272 707.315 188.743 707.493 188.049C707.679 187.346 707.772 186.492 707.772 185.484V178.807H711.645ZM732.376 178.54C733.984 178.54 735.199 178.955 736.02 179.784C736.849 180.605 737.264 181.925 737.264 183.745V193H733.379V184.71C733.379 183.694 733.205 182.928 732.858 182.412C732.511 181.896 731.974 181.638 731.246 181.638C730.222 181.638 729.494 182.006 729.062 182.742C728.631 183.47 728.415 184.515 728.415 185.878V193H724.543V184.71C724.543 184.033 724.467 183.466 724.314 183.009C724.162 182.552 723.929 182.209 723.616 181.98C723.303 181.752 722.901 181.638 722.41 181.638C721.691 181.638 721.124 181.82 720.709 182.184C720.303 182.539 720.011 183.068 719.833 183.771C719.664 184.465 719.579 185.315 719.579 186.322V193H715.707V178.807H718.665L719.186 180.622H719.401C719.689 180.131 720.049 179.733 720.48 179.429C720.921 179.124 721.403 178.9 721.928 178.756C722.452 178.612 722.986 178.54 723.527 178.54C724.568 178.54 725.449 178.709 726.168 179.048C726.896 179.386 727.454 179.911 727.844 180.622H728.187C728.61 179.894 729.206 179.365 729.977 179.035C730.755 178.705 731.555 178.54 732.376 178.54ZM752.498 193.254C750.915 193.254 749.625 192.636 748.626 191.4C747.636 190.156 747.141 188.332 747.141 185.929C747.141 183.5 747.644 181.663 748.651 180.419C749.659 179.166 750.975 178.54 752.6 178.54C753.277 178.54 753.873 178.633 754.39 178.819C754.906 179.006 755.35 179.255 755.723 179.568C756.104 179.882 756.425 180.233 756.688 180.622H756.814C756.764 180.351 756.7 179.953 756.624 179.429C756.556 178.896 756.522 178.35 756.522 177.791V173.246H760.407V193H757.437L756.688 191.159H756.522C756.277 191.549 755.968 191.904 755.596 192.226C755.232 192.539 754.796 192.788 754.288 192.975C753.78 193.161 753.184 193.254 752.498 193.254ZM753.856 190.169C754.914 190.169 755.659 189.856 756.091 189.229C756.531 188.595 756.764 187.643 756.789 186.373V185.954C756.789 184.575 756.577 183.521 756.154 182.793C755.731 182.057 754.944 181.688 753.793 181.688C752.938 181.688 752.27 182.057 751.787 182.793C751.305 183.529 751.063 184.591 751.063 185.979C751.063 187.368 751.305 188.413 751.787 189.115C752.278 189.818 752.968 190.169 753.856 190.169ZM777.355 185.878C777.355 187.063 777.195 188.112 776.873 189.026C776.56 189.94 776.099 190.715 775.489 191.35C774.888 191.976 774.16 192.45 773.306 192.771C772.459 193.093 771.503 193.254 770.437 193.254C769.438 193.254 768.52 193.093 767.682 192.771C766.852 192.45 766.129 191.976 765.511 191.35C764.901 190.715 764.427 189.94 764.089 189.026C763.759 188.112 763.594 187.063 763.594 185.878C763.594 184.304 763.873 182.971 764.432 181.879C764.99 180.787 765.786 179.958 766.818 179.391C767.851 178.824 769.082 178.54 770.513 178.54C771.841 178.54 773.018 178.824 774.042 179.391C775.075 179.958 775.883 180.787 776.467 181.879C777.059 182.971 777.355 184.304 777.355 185.878ZM767.542 185.878C767.542 186.809 767.644 187.592 767.847 188.227C768.05 188.861 768.367 189.34 768.799 189.661C769.23 189.983 769.793 190.144 770.487 190.144C771.173 190.144 771.727 189.983 772.15 189.661C772.582 189.34 772.895 188.861 773.09 188.227C773.293 187.592 773.395 186.809 773.395 185.878C773.395 184.938 773.293 184.16 773.09 183.542C772.895 182.916 772.582 182.446 772.15 182.133C771.719 181.82 771.156 181.663 770.462 181.663C769.438 181.663 768.693 182.014 768.228 182.717C767.771 183.419 767.542 184.473 767.542 185.878ZM784.427 193H780.555V173.246H784.427V193ZM801.4 185.878C801.4 187.063 801.24 188.112 800.918 189.026C800.605 189.94 800.144 190.715 799.534 191.35C798.933 191.976 798.205 192.45 797.351 192.771C796.504 193.093 795.548 193.254 794.481 193.254C793.483 193.254 792.564 193.093 791.727 192.771C790.897 192.45 790.174 191.976 789.556 191.35C788.946 190.715 788.472 189.94 788.134 189.026C787.804 188.112 787.639 187.063 787.639 185.878C787.639 184.304 787.918 182.971 788.477 181.879C789.035 180.787 789.831 179.958 790.863 179.391C791.896 178.824 793.127 178.54 794.558 178.54C795.886 178.54 797.063 178.824 798.087 179.391C799.119 179.958 799.928 180.787 800.512 181.879C801.104 182.971 801.4 184.304 801.4 185.878ZM791.587 185.878C791.587 186.809 791.688 187.592 791.892 188.227C792.095 188.861 792.412 189.34 792.844 189.661C793.275 189.983 793.838 190.144 794.532 190.144C795.218 190.144 795.772 189.983 796.195 189.661C796.627 189.34 796.94 188.861 797.135 188.227C797.338 187.592 797.439 186.809 797.439 185.878C797.439 184.938 797.338 184.16 797.135 183.542C796.94 182.916 796.627 182.446 796.195 182.133C795.764 181.82 795.201 181.663 794.507 181.663C793.483 181.663 792.738 182.014 792.272 182.717C791.815 183.419 791.587 184.473 791.587 185.878ZM812.521 178.54C812.716 178.54 812.94 178.553 813.194 178.578C813.457 178.595 813.668 178.62 813.829 178.654L813.537 182.285C813.41 182.243 813.228 182.213 812.991 182.196C812.763 182.171 812.564 182.158 812.395 182.158C811.895 182.158 811.409 182.222 810.935 182.349C810.469 182.476 810.05 182.683 809.678 182.971C809.305 183.25 809.009 183.622 808.789 184.088C808.577 184.545 808.472 185.108 808.472 185.776V193H804.6V178.807H807.532L808.104 181.193H808.294C808.573 180.711 808.92 180.271 809.335 179.873C809.758 179.467 810.236 179.145 810.77 178.908C811.311 178.663 811.895 178.54 812.521 178.54ZM833.062 188.785C833.062 189.75 832.834 190.567 832.377 191.235C831.928 191.896 831.256 192.399 830.358 192.746C829.461 193.085 828.344 193.254 827.007 193.254C826.017 193.254 825.166 193.19 824.455 193.063C823.753 192.937 823.042 192.725 822.322 192.429V189.229C823.092 189.576 823.918 189.864 824.798 190.093C825.687 190.313 826.465 190.423 827.134 190.423C827.887 190.423 828.424 190.313 828.746 190.093C829.076 189.864 829.241 189.568 829.241 189.204C829.241 188.967 829.174 188.756 829.038 188.569C828.911 188.375 828.632 188.159 828.2 187.922C827.769 187.676 827.091 187.359 826.169 186.97C825.28 186.597 824.548 186.221 823.973 185.84C823.406 185.459 822.982 185.01 822.703 184.494C822.432 183.969 822.297 183.305 822.297 182.501C822.297 181.189 822.805 180.203 823.82 179.543C824.844 178.874 826.211 178.54 827.921 178.54C828.801 178.54 829.639 178.629 830.435 178.807C831.239 178.984 832.064 179.268 832.91 179.657L831.742 182.45C831.04 182.146 830.375 181.896 829.749 181.701C829.131 181.507 828.501 181.409 827.857 181.409C827.29 181.409 826.863 181.485 826.575 181.638C826.287 181.79 826.144 182.023 826.144 182.336C826.144 182.564 826.215 182.768 826.359 182.945C826.512 183.123 826.799 183.322 827.223 183.542C827.654 183.754 828.285 184.029 829.114 184.367C829.918 184.697 830.617 185.044 831.209 185.408C831.801 185.764 832.258 186.208 832.58 186.741C832.902 187.266 833.062 187.947 833.062 188.785ZM839.956 178.807V193H836.084V178.807H839.956ZM838.026 173.246C838.602 173.246 839.097 173.382 839.512 173.652C839.926 173.915 840.134 174.41 840.134 175.138C840.134 175.857 839.926 176.356 839.512 176.636C839.097 176.907 838.602 177.042 838.026 177.042C837.442 177.042 836.943 176.907 836.528 176.636C836.122 176.356 835.919 175.857 835.919 175.138C835.919 174.41 836.122 173.915 836.528 173.652C836.943 173.382 837.442 173.246 838.026 173.246ZM850.011 190.169C850.434 190.169 850.844 190.127 851.242 190.042C851.648 189.957 852.05 189.852 852.448 189.725V192.606C852.034 192.793 851.517 192.945 850.899 193.063C850.29 193.19 849.621 193.254 848.894 193.254C848.047 193.254 847.285 193.118 846.608 192.848C845.94 192.568 845.411 192.09 845.021 191.413C844.641 190.728 844.45 189.775 844.45 188.557V181.714H842.597V180.076L844.729 178.781L845.847 175.785H848.322V178.807H852.296V181.714H848.322V188.557C848.322 189.098 848.475 189.505 848.779 189.775C849.092 190.038 849.503 190.169 850.011 190.169ZM867.898 178.515C869.803 178.515 871.263 178.929 872.278 179.759C873.294 180.588 873.802 181.849 873.802 183.542V193H871.098L870.349 191.07H870.247C869.841 191.578 869.426 191.993 869.003 192.314C868.58 192.636 868.093 192.873 867.543 193.025C866.993 193.178 866.324 193.254 865.537 193.254C864.699 193.254 863.946 193.093 863.277 192.771C862.617 192.45 862.097 191.959 861.716 191.299C861.335 190.63 861.145 189.784 861.145 188.76C861.145 187.253 861.674 186.145 862.731 185.434C863.789 184.714 865.376 184.316 867.492 184.24L869.955 184.164V183.542C869.955 182.797 869.76 182.251 869.371 181.904C868.982 181.557 868.44 181.384 867.746 181.384C867.061 181.384 866.388 181.481 865.728 181.676C865.067 181.87 864.407 182.116 863.747 182.412L862.465 179.797C863.218 179.399 864.06 179.086 864.991 178.857C865.931 178.629 866.9 178.515 867.898 178.515ZM869.955 186.424L868.457 186.475C867.204 186.508 866.333 186.733 865.842 187.147C865.359 187.562 865.118 188.108 865.118 188.785C865.118 189.378 865.292 189.801 865.639 190.055C865.986 190.3 866.438 190.423 866.997 190.423C867.826 190.423 868.525 190.177 869.092 189.687C869.667 189.196 869.955 188.497 869.955 187.592V186.424ZM894.47 178.54C896.078 178.54 897.292 178.955 898.113 179.784C898.943 180.605 899.357 181.925 899.357 183.745V193H895.473V184.71C895.473 183.694 895.299 182.928 894.952 182.412C894.605 181.896 894.068 181.638 893.34 181.638C892.316 181.638 891.588 182.006 891.156 182.742C890.725 183.47 890.509 184.515 890.509 185.878V193H886.637V184.71C886.637 184.033 886.561 183.466 886.408 183.009C886.256 182.552 886.023 182.209 885.71 181.98C885.397 181.752 884.995 181.638 884.504 181.638C883.785 181.638 883.217 181.82 882.803 182.184C882.396 182.539 882.104 183.068 881.927 183.771C881.757 184.465 881.673 185.315 881.673 186.322V193H877.801V178.807H880.759L881.279 180.622H881.495C881.783 180.131 882.143 179.733 882.574 179.429C883.014 179.124 883.497 178.9 884.021 178.756C884.546 178.612 885.079 178.54 885.621 178.54C886.662 178.54 887.542 178.709 888.262 179.048C888.99 179.386 889.548 179.911 889.938 180.622H890.28C890.703 179.894 891.3 179.365 892.07 179.035C892.849 178.705 893.649 178.54 894.47 178.54ZM909.196 178.54C910.508 178.54 911.638 178.794 912.586 179.302C913.534 179.801 914.266 180.529 914.782 181.485C915.299 182.442 915.557 183.61 915.557 184.989V186.868H906.403C906.446 187.96 906.771 188.819 907.381 189.445C907.999 190.063 908.854 190.372 909.945 190.372C910.851 190.372 911.68 190.279 912.434 190.093C913.187 189.907 913.961 189.627 914.757 189.255V192.251C914.054 192.598 913.318 192.852 912.548 193.013C911.786 193.174 910.859 193.254 909.768 193.254C908.346 193.254 907.085 192.992 905.984 192.467C904.893 191.942 904.034 191.142 903.407 190.067C902.789 188.993 902.48 187.638 902.48 186.005C902.48 184.346 902.76 182.966 903.318 181.866C903.885 180.757 904.673 179.928 905.68 179.378C906.687 178.819 907.859 178.54 909.196 178.54ZM909.222 181.295C908.468 181.295 907.842 181.536 907.343 182.019C906.852 182.501 906.568 183.258 906.492 184.291H911.926C911.917 183.715 911.812 183.203 911.608 182.755C911.414 182.306 911.118 181.951 910.72 181.688C910.33 181.426 909.831 181.295 909.222 181.295ZM924.685 190.169C925.108 190.169 925.518 190.127 925.916 190.042C926.322 189.957 926.724 189.852 927.122 189.725V192.606C926.707 192.793 926.191 192.945 925.573 193.063C924.964 193.19 924.295 193.254 923.567 193.254C922.721 193.254 921.959 193.118 921.282 192.848C920.614 192.568 920.085 192.09 919.695 191.413C919.314 190.728 919.124 189.775 919.124 188.557V181.714H917.271V180.076L919.403 178.781L920.521 175.785H922.996V178.807H926.97V181.714H922.996V188.557C922.996 189.098 923.148 189.505 923.453 189.775C923.766 190.038 924.177 190.169 924.685 190.169ZM933.609 189.979L933.8 190.271C933.647 190.88 933.449 191.536 933.203 192.238C932.966 192.941 932.704 193.643 932.416 194.346C932.137 195.048 931.853 195.717 931.565 196.352H928.772C928.942 195.666 929.107 194.947 929.268 194.193C929.428 193.44 929.576 192.7 929.712 191.972C929.856 191.244 929.97 190.579 930.055 189.979H933.609ZM949.936 193.254C948.531 193.254 947.333 193 946.343 192.492C945.353 191.976 944.599 191.18 944.083 190.105C943.567 189.031 943.309 187.655 943.309 185.979C943.309 184.244 943.601 182.831 944.185 181.739C944.777 180.639 945.594 179.831 946.635 179.314C947.684 178.798 948.899 178.54 950.278 178.54C951.26 178.54 952.106 178.637 952.817 178.832C953.537 179.018 954.163 179.243 954.696 179.505L953.554 182.501C952.944 182.256 952.377 182.057 951.853 181.904C951.328 181.743 950.803 181.663 950.278 181.663C949.601 181.663 949.038 181.824 948.59 182.146C948.141 182.459 947.807 182.933 947.587 183.567C947.367 184.202 947.257 184.998 947.257 185.954C947.257 186.894 947.375 187.672 947.612 188.29C947.849 188.908 948.192 189.369 948.641 189.674C949.089 189.97 949.635 190.118 950.278 190.118C951.082 190.118 951.798 190.012 952.424 189.801C953.05 189.581 953.66 189.276 954.252 188.887V192.2C953.66 192.573 953.037 192.839 952.386 193C951.743 193.169 950.926 193.254 949.936 193.254ZM970.451 185.878C970.451 187.063 970.29 188.112 969.969 189.026C969.656 189.94 969.194 190.715 968.585 191.35C967.984 191.976 967.256 192.45 966.401 192.771C965.555 193.093 964.599 193.254 963.532 193.254C962.534 193.254 961.615 193.093 960.777 192.771C959.948 192.45 959.224 191.976 958.606 191.35C957.997 190.715 957.523 189.94 957.185 189.026C956.854 188.112 956.689 187.063 956.689 185.878C956.689 184.304 956.969 182.971 957.527 181.879C958.086 180.787 958.882 179.958 959.914 179.391C960.947 178.824 962.178 178.54 963.608 178.54C964.937 178.54 966.114 178.824 967.138 179.391C968.17 179.958 968.979 180.787 969.562 181.879C970.155 182.971 970.451 184.304 970.451 185.878ZM960.638 185.878C960.638 186.809 960.739 187.592 960.942 188.227C961.146 188.861 961.463 189.34 961.895 189.661C962.326 189.983 962.889 190.144 963.583 190.144C964.269 190.144 964.823 189.983 965.246 189.661C965.678 189.34 965.991 188.861 966.186 188.227C966.389 187.592 966.49 186.809 966.49 185.878C966.49 184.938 966.389 184.16 966.186 183.542C965.991 182.916 965.678 182.446 965.246 182.133C964.814 181.82 964.252 181.663 963.558 181.663C962.534 181.663 961.789 182.014 961.323 182.717C960.866 183.419 960.638 184.473 960.638 185.878ZM981.712 178.54C983.227 178.54 984.446 178.955 985.368 179.784C986.291 180.605 986.752 181.925 986.752 183.745V193H982.88V184.71C982.88 183.694 982.694 182.928 982.321 182.412C981.957 181.896 981.382 181.638 980.595 181.638C979.41 181.638 978.602 182.04 978.17 182.844C977.738 183.648 977.522 184.807 977.522 186.322V193H973.65V178.807H976.608L977.129 180.622H977.345C977.649 180.131 978.026 179.733 978.475 179.429C978.932 179.124 979.435 178.9 979.985 178.756C980.544 178.612 981.119 178.54 981.712 178.54ZM1000.64 188.785C1000.64 189.75 1000.41 190.567 999.955 191.235C999.507 191.896 998.834 192.399 997.937 192.746C997.039 193.085 995.922 193.254 994.585 193.254C993.595 193.254 992.744 193.19 992.033 193.063C991.331 192.937 990.62 192.725 989.9 192.429V189.229C990.671 189.576 991.496 189.864 992.376 190.093C993.265 190.313 994.043 190.423 994.712 190.423C995.465 190.423 996.003 190.313 996.324 190.093C996.654 189.864 996.819 189.568 996.819 189.204C996.819 188.967 996.752 188.756 996.616 188.569C996.489 188.375 996.21 188.159 995.778 187.922C995.347 187.676 994.67 187.359 993.747 186.97C992.858 186.597 992.126 186.221 991.551 185.84C990.984 185.459 990.561 185.01 990.281 184.494C990.01 183.969 989.875 183.305 989.875 182.501C989.875 181.189 990.383 180.203 991.398 179.543C992.423 178.874 993.789 178.54 995.499 178.54C996.379 178.54 997.217 178.629 998.013 178.807C998.817 178.984 999.642 179.268 1000.49 179.657L999.32 182.45C998.618 182.146 997.953 181.896 997.327 181.701C996.709 181.507 996.079 181.409 995.436 181.409C994.868 181.409 994.441 181.485 994.153 181.638C993.866 181.79 993.722 182.023 993.722 182.336C993.722 182.564 993.794 182.768 993.938 182.945C994.09 183.123 994.378 183.322 994.801 183.542C995.232 183.754 995.863 184.029 996.692 184.367C997.496 184.697 998.195 185.044 998.787 185.408C999.38 185.764 999.837 186.208 1000.16 186.741C1000.48 187.266 1000.64 187.947 1000.64 188.785ZM1009.51 178.54C1010.83 178.54 1011.96 178.794 1012.9 179.302C1013.85 179.801 1014.58 180.529 1015.1 181.485C1015.62 182.442 1015.88 183.61 1015.88 184.989V186.868H1006.72C1006.76 187.96 1007.09 188.819 1007.7 189.445C1008.32 190.063 1009.17 190.372 1010.26 190.372C1011.17 190.372 1012 190.279 1012.75 190.093C1013.51 189.907 1014.28 189.627 1015.08 189.255V192.251C1014.37 192.598 1013.64 192.852 1012.87 193.013C1012.1 193.174 1011.18 193.254 1010.09 193.254C1008.66 193.254 1007.4 192.992 1006.3 192.467C1005.21 191.942 1004.35 191.142 1003.73 190.067C1003.11 188.993 1002.8 187.638 1002.8 186.005C1002.8 184.346 1003.08 182.966 1003.64 181.866C1004.2 180.757 1004.99 179.928 1006 179.378C1007.01 178.819 1008.18 178.54 1009.51 178.54ZM1009.54 181.295C1008.79 181.295 1008.16 181.536 1007.66 182.019C1007.17 182.501 1006.89 183.258 1006.81 184.291H1012.24C1012.24 183.715 1012.13 183.203 1011.93 182.755C1011.73 182.306 1011.44 181.951 1011.04 181.688C1010.65 181.426 1010.15 181.295 1009.54 181.295ZM1024.79 193.254C1023.38 193.254 1022.18 193 1021.19 192.492C1020.2 191.976 1019.45 191.18 1018.93 190.105C1018.42 189.031 1018.16 187.655 1018.16 185.979C1018.16 184.244 1018.45 182.831 1019.04 181.739C1019.63 180.639 1020.45 179.831 1021.49 179.314C1022.54 178.798 1023.75 178.54 1025.13 178.54C1026.11 178.54 1026.96 178.637 1027.67 178.832C1028.39 179.018 1029.01 179.243 1029.55 179.505L1028.41 182.501C1027.8 182.256 1027.23 182.057 1026.7 181.904C1026.18 181.743 1025.65 181.663 1025.13 181.663C1024.45 181.663 1023.89 181.824 1023.44 182.146C1022.99 182.459 1022.66 182.933 1022.44 183.567C1022.22 184.202 1022.11 184.998 1022.11 185.954C1022.11 186.894 1022.23 187.672 1022.46 188.29C1022.7 188.908 1023.04 189.369 1023.49 189.674C1023.94 189.97 1024.49 190.118 1025.13 190.118C1025.93 190.118 1026.65 190.012 1027.28 189.801C1027.9 189.581 1028.51 189.276 1029.1 188.887V192.2C1028.51 192.573 1027.89 192.839 1027.24 193C1026.59 193.169 1025.78 193.254 1024.79 193.254ZM1038.38 190.169C1038.81 190.169 1039.22 190.127 1039.62 190.042C1040.02 189.957 1040.42 189.852 1040.82 189.725V192.606C1040.41 192.793 1039.89 192.945 1039.27 193.063C1038.66 193.19 1037.99 193.254 1037.27 193.254C1036.42 193.254 1035.66 193.118 1034.98 192.848C1034.31 192.568 1033.78 192.09 1033.39 191.413C1033.01 190.728 1032.82 189.775 1032.82 188.557V181.714H1030.97V180.076L1033.1 178.781L1034.22 175.785H1036.7V178.807H1040.67V181.714H1036.7V188.557C1036.7 189.098 1036.85 189.505 1037.15 189.775C1037.47 190.038 1037.88 190.169 1038.38 190.169ZM1049.56 178.54C1050.87 178.54 1052 178.794 1052.95 179.302C1053.89 179.801 1054.63 180.529 1055.14 181.485C1055.66 182.442 1055.92 183.61 1055.92 184.989V186.868H1046.76C1046.81 187.96 1047.13 188.819 1047.74 189.445C1048.36 190.063 1049.21 190.372 1050.3 190.372C1051.21 190.372 1052.04 190.279 1052.79 190.093C1053.55 189.907 1054.32 189.627 1055.12 189.255V192.251C1054.41 192.598 1053.68 192.852 1052.91 193.013C1052.15 193.174 1051.22 193.254 1050.13 193.254C1048.71 193.254 1047.44 192.992 1046.34 192.467C1045.25 191.942 1044.39 191.142 1043.77 190.067C1043.15 188.993 1042.84 187.638 1042.84 186.005C1042.84 184.346 1043.12 182.966 1043.68 181.866C1044.24 180.757 1045.03 179.928 1046.04 179.378C1047.05 178.819 1048.22 178.54 1049.56 178.54ZM1049.58 181.295C1048.83 181.295 1048.2 181.536 1047.7 182.019C1047.21 182.501 1046.93 183.258 1046.85 184.291H1052.29C1052.28 183.715 1052.17 183.203 1051.97 182.755C1051.77 182.306 1051.48 181.951 1051.08 181.688C1050.69 181.426 1050.19 181.295 1049.58 181.295ZM1065.04 190.169C1065.47 190.169 1065.88 190.127 1066.28 190.042C1066.68 189.957 1067.08 189.852 1067.48 189.725V192.606C1067.07 192.793 1066.55 192.945 1065.93 193.063C1065.32 193.19 1064.65 193.254 1063.93 193.254C1063.08 193.254 1062.32 193.118 1061.64 192.848C1060.97 192.568 1060.44 192.09 1060.05 191.413C1059.67 190.728 1059.48 189.775 1059.48 188.557V181.714H1057.63V180.076L1059.76 178.781L1060.88 175.785H1063.36V178.807H1067.33V181.714H1063.36V188.557C1063.36 189.098 1063.51 189.505 1063.81 189.775C1064.13 190.038 1064.54 190.169 1065.04 190.169ZM1083.39 178.807V193H1080.42L1079.9 191.185H1079.69C1079.39 191.667 1079.01 192.061 1078.55 192.365C1078.09 192.67 1077.59 192.894 1077.04 193.038C1076.49 193.182 1075.92 193.254 1075.33 193.254C1074.31 193.254 1073.43 193.076 1072.67 192.721C1071.92 192.357 1071.33 191.794 1070.91 191.032C1070.49 190.271 1070.29 189.28 1070.29 188.062V178.807H1074.16V187.097C1074.16 188.112 1074.34 188.878 1074.71 189.395C1075.07 189.911 1075.65 190.169 1076.44 190.169C1077.23 190.169 1077.85 189.991 1078.3 189.636C1078.75 189.272 1079.06 188.743 1079.24 188.049C1079.42 187.346 1079.52 186.492 1079.52 185.484V178.807H1083.39ZM1095.37 178.54C1095.57 178.54 1095.79 178.553 1096.05 178.578C1096.31 178.595 1096.52 178.62 1096.68 178.654L1096.39 182.285C1096.26 182.243 1096.08 182.213 1095.84 182.196C1095.61 182.171 1095.42 182.158 1095.25 182.158C1094.75 182.158 1094.26 182.222 1093.79 182.349C1093.32 182.476 1092.9 182.683 1092.53 182.971C1092.16 183.25 1091.86 183.622 1091.64 184.088C1091.43 184.545 1091.32 185.108 1091.32 185.776V193H1087.45V178.807H1090.38L1090.96 181.193H1091.15C1091.42 180.711 1091.77 180.271 1092.19 179.873C1092.61 179.467 1093.09 179.145 1093.62 178.908C1094.16 178.663 1094.75 178.54 1095.37 178.54ZM576.846 213.515C578.75 213.515 580.21 213.929 581.226 214.759C582.241 215.588 582.749 216.849 582.749 218.542V228H580.045L579.296 226.07H579.194C578.788 226.578 578.373 226.993 577.95 227.314C577.527 227.636 577.04 227.873 576.49 228.025C575.94 228.178 575.271 228.254 574.484 228.254C573.646 228.254 572.893 228.093 572.225 227.771C571.564 227.45 571.044 226.959 570.663 226.299C570.282 225.63 570.092 224.784 570.092 223.76C570.092 222.253 570.621 221.145 571.679 220.434C572.737 219.714 574.324 219.316 576.439 219.24L578.902 219.164V218.542C578.902 217.797 578.708 217.251 578.318 216.904C577.929 216.557 577.387 216.384 576.693 216.384C576.008 216.384 575.335 216.481 574.675 216.676C574.015 216.87 573.354 217.116 572.694 217.412L571.412 214.797C572.165 214.399 573.007 214.086 573.938 213.857C574.878 213.629 575.847 213.515 576.846 213.515ZM578.902 221.424L577.404 221.475C576.152 221.508 575.28 221.733 574.789 222.147C574.307 222.562 574.065 223.108 574.065 223.785C574.065 224.378 574.239 224.801 574.586 225.055C574.933 225.3 575.386 225.423 575.944 225.423C576.774 225.423 577.472 225.177 578.039 224.687C578.615 224.196 578.902 223.497 578.902 222.592V221.424ZM591.242 228.254C589.66 228.254 588.369 227.636 587.37 226.4C586.38 225.156 585.885 223.332 585.885 220.929C585.885 218.5 586.388 216.663 587.396 215.419C588.403 214.166 589.719 213.54 591.344 213.54C592.021 213.54 592.618 213.633 593.134 213.819C593.65 214.006 594.094 214.255 594.467 214.568C594.848 214.882 595.169 215.233 595.432 215.622H595.559C595.508 215.351 595.444 214.953 595.368 214.429C595.3 213.896 595.267 213.35 595.267 212.791V208.246H599.151V228H596.181L595.432 226.159H595.267C595.021 226.549 594.712 226.904 594.34 227.226C593.976 227.539 593.54 227.788 593.032 227.975C592.524 228.161 591.928 228.254 591.242 228.254ZM592.601 225.169C593.659 225.169 594.403 224.856 594.835 224.229C595.275 223.595 595.508 222.643 595.533 221.373V220.954C595.533 219.575 595.322 218.521 594.898 217.793C594.475 217.057 593.688 216.688 592.537 216.688C591.682 216.688 591.014 217.057 590.531 217.793C590.049 218.529 589.808 219.591 589.808 220.979C589.808 222.368 590.049 223.413 590.531 224.115C591.022 224.818 591.712 225.169 592.601 225.169ZM607.073 213.807V228H603.201V213.807H607.073ZM605.144 208.246C605.719 208.246 606.214 208.382 606.629 208.652C607.044 208.915 607.251 209.41 607.251 210.138C607.251 210.857 607.044 211.356 606.629 211.636C606.214 211.907 605.719 212.042 605.144 212.042C604.56 212.042 604.06 211.907 603.646 211.636C603.239 211.356 603.036 210.857 603.036 210.138C603.036 209.41 603.239 208.915 603.646 208.652C604.06 208.382 604.56 208.246 605.144 208.246ZM619.045 213.54C620.645 213.54 621.935 214.162 622.917 215.406C623.907 216.65 624.402 218.474 624.402 220.878C624.402 222.486 624.17 223.84 623.704 224.94C623.239 226.032 622.595 226.857 621.774 227.416C620.953 227.975 620.01 228.254 618.943 228.254C618.258 228.254 617.67 228.169 617.179 228C616.688 227.822 616.269 227.598 615.922 227.327C615.575 227.048 615.274 226.752 615.021 226.438H614.817C614.885 226.777 614.936 227.124 614.97 227.479C615.004 227.835 615.021 228.182 615.021 228.521V234.246H611.148V213.807H614.297L614.843 215.647H615.021C615.274 215.267 615.583 214.915 615.947 214.594C616.311 214.272 616.747 214.018 617.255 213.832C617.771 213.637 618.368 213.54 619.045 213.54ZM617.801 216.638C617.124 216.638 616.586 216.777 616.188 217.057C615.791 217.336 615.499 217.755 615.312 218.313C615.135 218.872 615.037 219.579 615.021 220.434V220.853C615.021 221.767 615.105 222.541 615.274 223.176C615.452 223.811 615.744 224.293 616.15 224.623C616.565 224.953 617.132 225.118 617.852 225.118C618.444 225.118 618.931 224.953 619.312 224.623C619.692 224.293 619.976 223.811 620.162 223.176C620.357 222.533 620.454 221.75 620.454 220.827C620.454 219.439 620.238 218.394 619.807 217.691C619.375 216.989 618.706 216.638 617.801 216.638ZM631.474 213.807V228H627.602V213.807H631.474ZM629.544 208.246C630.119 208.246 630.615 208.382 631.029 208.652C631.444 208.915 631.651 209.41 631.651 210.138C631.651 210.857 631.444 211.356 631.029 211.636C630.615 211.907 630.119 212.042 629.544 212.042C628.96 212.042 628.461 211.907 628.046 211.636C627.64 211.356 627.437 210.857 627.437 210.138C627.437 209.41 627.64 208.915 628.046 208.652C628.461 208.382 628.96 208.246 629.544 208.246ZM645.451 223.785C645.451 224.75 645.223 225.567 644.766 226.235C644.317 226.896 643.644 227.399 642.747 227.746C641.85 228.085 640.733 228.254 639.396 228.254C638.405 228.254 637.555 228.19 636.844 228.063C636.141 227.937 635.43 227.725 634.711 227.429V224.229C635.481 224.576 636.306 224.864 637.187 225.093C638.075 225.313 638.854 225.423 639.522 225.423C640.276 225.423 640.813 225.313 641.135 225.093C641.465 224.864 641.63 224.568 641.63 224.204C641.63 223.967 641.562 223.756 641.427 223.569C641.3 223.375 641.021 223.159 640.589 222.922C640.157 222.676 639.48 222.359 638.558 221.97C637.669 221.597 636.937 221.221 636.361 220.84C635.794 220.459 635.371 220.01 635.092 219.494C634.821 218.969 634.686 218.305 634.686 217.501C634.686 216.189 635.193 215.203 636.209 214.543C637.233 213.874 638.6 213.54 640.31 213.54C641.19 213.54 642.028 213.629 642.823 213.807C643.627 213.984 644.452 214.268 645.299 214.657L644.131 217.45C643.428 217.146 642.764 216.896 642.138 216.701C641.52 216.507 640.889 216.409 640.246 216.409C639.679 216.409 639.252 216.485 638.964 216.638C638.676 216.79 638.532 217.023 638.532 217.336C638.532 217.564 638.604 217.768 638.748 217.945C638.9 218.123 639.188 218.322 639.611 218.542C640.043 218.754 640.674 219.029 641.503 219.367C642.307 219.697 643.005 220.044 643.598 220.408C644.19 220.764 644.647 221.208 644.969 221.741C645.29 222.266 645.451 222.947 645.451 223.785ZM654.236 228.254C652.831 228.254 651.634 228 650.644 227.492C649.653 226.976 648.9 226.18 648.384 225.105C647.868 224.031 647.609 222.655 647.609 220.979C647.609 219.244 647.901 217.831 648.485 216.739C649.078 215.639 649.895 214.831 650.936 214.314C651.985 213.798 653.2 213.54 654.579 213.54C655.561 213.54 656.407 213.637 657.118 213.832C657.838 214.018 658.464 214.243 658.997 214.505L657.854 217.501C657.245 217.256 656.678 217.057 656.153 216.904C655.629 216.743 655.104 216.663 654.579 216.663C653.902 216.663 653.339 216.824 652.891 217.146C652.442 217.459 652.108 217.933 651.888 218.567C651.668 219.202 651.558 219.998 651.558 220.954C651.558 221.894 651.676 222.672 651.913 223.29C652.15 223.908 652.493 224.369 652.941 224.674C653.39 224.97 653.936 225.118 654.579 225.118C655.383 225.118 656.098 225.012 656.725 224.801C657.351 224.581 657.96 224.276 658.553 223.887V227.2C657.96 227.573 657.338 227.839 656.687 228C656.043 228.169 655.227 228.254 654.236 228.254ZM665.726 213.807V228H661.854V213.807H665.726ZM663.796 208.246C664.371 208.246 664.867 208.382 665.281 208.652C665.696 208.915 665.903 209.41 665.903 210.138C665.903 210.857 665.696 211.356 665.281 211.636C664.867 211.907 664.371 212.042 663.796 212.042C663.212 212.042 662.713 211.907 662.298 211.636C661.892 211.356 661.688 210.857 661.688 210.138C661.688 209.41 661.892 208.915 662.298 208.652C662.713 208.382 663.212 208.246 663.796 208.246ZM677.862 213.54C679.377 213.54 680.596 213.955 681.519 214.784C682.441 215.605 682.902 216.925 682.902 218.745V228H679.03V219.71C679.03 218.694 678.844 217.928 678.472 217.412C678.108 216.896 677.532 216.638 676.745 216.638C675.56 216.638 674.752 217.04 674.32 217.844C673.889 218.648 673.673 219.807 673.673 221.322V228H669.801V213.807H672.759L673.279 215.622H673.495C673.8 215.131 674.176 214.733 674.625 214.429C675.082 214.124 675.586 213.9 676.136 213.756C676.694 213.612 677.27 213.54 677.862 213.54ZM691.04 234.246C689.06 234.246 687.545 233.899 686.495 233.205C685.454 232.52 684.934 231.555 684.934 230.311C684.934 229.456 685.2 228.741 685.733 228.165C686.267 227.59 687.049 227.179 688.082 226.934C687.684 226.764 687.337 226.489 687.041 226.108C686.745 225.719 686.597 225.309 686.597 224.877C686.597 224.335 686.753 223.887 687.066 223.531C687.38 223.167 687.832 222.812 688.425 222.465C687.68 222.143 687.088 221.627 686.647 220.916C686.216 220.205 686 219.367 686 218.402C686 217.37 686.224 216.494 686.673 215.774C687.13 215.047 687.79 214.492 688.653 214.111C689.525 213.73 690.583 213.54 691.827 213.54C692.09 213.54 692.394 213.557 692.741 213.591C693.088 213.625 693.406 213.663 693.693 213.705C693.99 213.747 694.188 213.781 694.29 213.807H699.241V215.774L697.02 216.346C697.223 216.659 697.375 216.993 697.477 217.349C697.578 217.704 697.629 218.081 697.629 218.479C697.629 220.002 697.096 221.191 696.029 222.046C694.971 222.892 693.499 223.315 691.611 223.315C691.163 223.29 690.74 223.256 690.342 223.214C690.147 223.366 689.999 223.527 689.897 223.696C689.796 223.866 689.745 224.043 689.745 224.229C689.745 224.416 689.821 224.572 689.974 224.699C690.134 224.818 690.371 224.911 690.685 224.979C691.006 225.038 691.404 225.067 691.878 225.067H694.29C695.847 225.067 697.032 225.402 697.845 226.07C698.666 226.739 699.076 227.721 699.076 229.016C699.076 230.674 698.382 231.961 696.994 232.875C695.615 233.789 693.63 234.246 691.04 234.246ZM691.205 231.72C692.128 231.72 692.919 231.631 693.579 231.453C694.248 231.284 694.76 231.038 695.115 230.717C695.471 230.404 695.648 230.027 695.648 229.587C695.648 229.231 695.543 228.948 695.331 228.736C695.128 228.533 694.815 228.389 694.392 228.305C693.977 228.22 693.444 228.178 692.792 228.178H690.786C690.312 228.178 689.885 228.254 689.504 228.406C689.132 228.559 688.835 228.77 688.615 229.041C688.395 229.32 688.285 229.642 688.285 230.006C688.285 230.539 688.539 230.958 689.047 231.263C689.563 231.567 690.283 231.72 691.205 231.72ZM691.827 220.954C692.555 220.954 693.088 220.73 693.427 220.281C693.765 219.833 693.935 219.223 693.935 218.453C693.935 217.598 693.757 216.959 693.401 216.536C693.054 216.104 692.53 215.889 691.827 215.889C691.116 215.889 690.583 216.104 690.228 216.536C689.872 216.959 689.694 217.598 689.694 218.453C689.694 219.223 689.868 219.833 690.215 220.281C690.57 220.73 691.108 220.954 691.827 220.954ZM714.196 213.54C715.508 213.54 716.638 213.794 717.586 214.302C718.534 214.801 719.266 215.529 719.782 216.485C720.299 217.442 720.557 218.61 720.557 219.989V221.868H711.403C711.446 222.96 711.771 223.819 712.381 224.445C712.999 225.063 713.854 225.372 714.945 225.372C715.851 225.372 716.68 225.279 717.434 225.093C718.187 224.907 718.961 224.627 719.757 224.255V227.251C719.054 227.598 718.318 227.852 717.548 228.013C716.786 228.174 715.859 228.254 714.768 228.254C713.346 228.254 712.085 227.992 710.984 227.467C709.893 226.942 709.034 226.142 708.407 225.067C707.789 223.993 707.48 222.638 707.48 221.005C707.48 219.346 707.76 217.966 708.318 216.866C708.885 215.757 709.673 214.928 710.68 214.378C711.687 213.819 712.859 213.54 714.196 213.54ZM714.222 216.295C713.468 216.295 712.842 216.536 712.343 217.019C711.852 217.501 711.568 218.258 711.492 219.291H716.926C716.917 218.715 716.812 218.203 716.608 217.755C716.414 217.306 716.118 216.951 715.72 216.688C715.33 216.426 714.831 216.295 714.222 216.295ZM727.577 228H723.705V208.246H727.577V228ZM735.524 213.807V228H731.652V213.807H735.524ZM733.595 208.246C734.17 208.246 734.665 208.382 735.08 208.652C735.495 208.915 735.702 209.41 735.702 210.138C735.702 210.857 735.495 211.356 735.08 211.636C734.665 211.907 734.17 212.042 733.595 212.042C733.011 212.042 732.511 211.907 732.097 211.636C731.69 211.356 731.487 210.857 731.487 210.138C731.487 209.41 731.69 208.915 732.097 208.652C732.511 208.382 733.011 208.246 733.595 208.246ZM745.579 225.169C746.002 225.169 746.413 225.127 746.811 225.042C747.217 224.957 747.619 224.852 748.017 224.725V227.606C747.602 227.793 747.086 227.945 746.468 228.063C745.858 228.19 745.19 228.254 744.462 228.254C743.616 228.254 742.854 228.118 742.177 227.848C741.508 227.568 740.979 227.09 740.59 226.413C740.209 225.728 740.019 224.775 740.019 223.557V216.714H738.165V215.076L740.298 213.781L741.415 210.785H743.891V213.807H747.864V216.714H743.891V223.557C743.891 224.098 744.043 224.505 744.348 224.775C744.661 225.038 745.071 225.169 745.579 225.169Z" fill="white"/>
</g>
<defs>
<filter id="filter0_f_5_41901" x="-267" y="-546" width="1170" height="1022" filterUnits="userSpaceOnUse" color-interpolation-filters="sRGB">
<feFlood flood-opacity="0" result="BackgroundImageFix"/>
<feBlend mode="normal" in="SourceGraphic" in2="BackgroundImageFix" result="shape"/>
<feGaussianBlur stdDeviation="62" result="effect1_foregroundBlur_5_41901"/>
</filter>
<filter id="filter1_f_5_41901" x="1095" y="-93" width="730" height="730" filterUnits="userSpaceOnUse" color-interpolation-filters="sRGB">
<feFlood flood-opacity="0" result="BackgroundImageFix"/>
<feBlend mode="normal" in="SourceGraphic" in2="BackgroundImageFix" result="shape"/>
<feGaussianBlur stdDeviation="62" result="effect1_foregroundBlur_5_41901"/>
</filter>
<linearGradient id="paint0_linear_5_41901" x1="318" y1="-422" x2="318" y2="352" gradientUnits="userSpaceOnUse">
<stop stop-color="#045DA4"/>
<stop offset="1" stop-color="#0C93FF"/>
</linearGradient>
<linearGradient id="paint1_linear_5_41901" x1="1460" y1="31" x2="1460" y2="513" gradientUnits="userSpaceOnUse">
<stop stop-color="#045DA4"/>
<stop offset="1" stop-color="#0C93FF"/>
</linearGradient>
<clipPath id="clip0_5_41901">
<rect width="1680" height="308" rx="20" fill="white"/>
</clipPath>
</defs>
</svg>
