<svg width="30" height="27" viewBox="0 0 30 27" fill="none" xmlns="http://www.w3.org/2000/svg">
<path d="M15.642 4.50845C15.2914 4.8583 14.7087 4.8583 14.358 4.50845C11.6546 1.89141 7.28993 1.89245 4.60102 4.50938L15.642 4.50845ZM15.642 4.50845C18.3454 1.8914 22.7101 1.89245 25.399 4.50942C28.0849 7.12469 28.0848 11.3601 25.3991 13.9741C25.3991 13.9741 25.3991 13.9741 25.399 13.9741L15 24.0865L4.60097 13.9741C1.9152 11.3602 1.91512 7.12472 4.60097 4.50942L15.642 4.50845ZM26.6944 3.2346L26.6942 3.23442C23.4916 0.123127 18.4296 -0.0653501 15 2.66587C11.5704 -0.0653501 6.50837 0.123127 3.30579 3.23442L3.30561 3.2346C-0.10187 6.55176 -0.10187 11.9331 3.30561 15.2503L3.30578 15.2505L14.3574 25.9883C14.528 26.1603 14.7662 26.25 15 26.25C15.2338 26.25 15.472 26.1603 15.6426 25.9883L26.6942 15.2505L26.6944 15.2503C30.1019 11.9331 30.1019 6.55176 26.6944 3.2346Z" fill="white" stroke="white" stroke-width="0.5"/>
</svg>
